<svg width="37" height="38" viewBox="0 0 37 38" fill="none" xmlns="http://www.w3.org/2000/svg">
<path d="M35.9275 0.0678711H1.07246C0.480158 0.0678711 0 0.548028 0 1.14033V36.8599C0 37.4522 0.480159 37.9324 1.07246 37.9324H22.327C22.9193 37.9324 23.3994 37.4522 23.3994 36.8599V24.1743C23.3994 15.3399 28.0493 7.15757 35.6391 2.63625L36.4764 2.13743C36.8011 1.94402 37 1.59399 37 1.21606V1.14033C37 0.548029 36.5198 0.0678711 35.9275 0.0678711Z" fill="#4D6575"/>
<path d="M25.0701 29.1693V23.3196C25.0701 15.7665 29.0465 8.77134 35.5364 4.90749C36.1818 4.52323 37 4.98832 37 5.73945V28.9733C37 29.3553 36.6903 29.6649 36.3084 29.6649H25.5657C25.292 29.6649 25.0701 29.443 25.0701 29.1693Z" fill="#4D6575"/>
<path d="M25.7621 31.3115L36.3088 31.3179C36.6906 31.3182 37 31.6277 37 32.0095V37.0753C37 37.4572 36.6903 37.7669 36.3084 37.7669H25.7616C25.3797 37.7669 25.0701 37.4572 25.0701 37.0753V32.003C25.0701 31.6209 25.38 31.3112 25.7621 31.3115Z" fill="#4D6575"/>
</svg>
